<svg xmlns="http://www.w3.org/2000/svg" viewBox="0 0 2077.16 1192" width="100%" role="img" aria-label="unoverse: single box architecture"><defs><symbol id="l-kubernetes" viewBox="0 0 100 100"><polygon points="50.00,3.00 86.75,20.70 95.82,60.46 70.39,92.35 29.61,92.35 4.18,60.46 13.25,20.70" fill="#326ce5" stroke="#326ce5" stroke-width="6" stroke-linejoin="round"/><g stroke="#fff" stroke-width="5" stroke-linecap="round" fill="none"><circle cx="50" cy="50" r="21"/><line x1="50.00" y1="43.00" x2="50.00" y2="19.00"/><line x1="55.47" y1="45.64" x2="74.24" y2="30.67"/><line x1="56.82" y1="51.56" x2="80.22" y2="56.90"/><line x1="53.04" y1="56.31" x2="63.45" y2="77.93"/><line x1="46.96" y1="56.31" x2="36.55" y2="77.93"/><line x1="43.18" y1="51.56" x2="19.78" y2="56.90"/><line x1="44.53" y1="45.64" x2="25.76" y2="30.67"/></g><circle cx="50" cy="50" r="7" fill="#fff"/></symbol><symbol id="l-postgres" viewBox="0 0 256 264"><path d="M255.008 158.086c-1.535-4.649-5.556-7.887-10.756-8.664c-2.452-.366-5.26-.21-8.583.475c-5.792 1.195-10.089 1.65-13.225 1.738c11.837-19.985 21.462-42.775 27.003-64.228c8.96-34.689 4.172-50.492-1.423-57.64C233.217 10.847 211.614.683 185.552.372c-13.903-.17-26.108 2.575-32.475 4.549c-5.928-1.046-12.302-1.63-18.99-1.738c-12.537-.2-23.614 2.533-33.079 8.15c-5.24-1.772-13.65-4.27-23.362-5.864c-22.842-3.75-41.252-.828-54.718 8.685C6.622 25.672-.937 45.684.461 73.634c.444 8.874 5.408 35.874 13.224 61.48c4.492 14.718 9.282 26.94 14.237 36.33c7.027 13.315 14.546 21.156 22.987 23.972c4.731 1.576 13.327 2.68 22.368-4.85c1.146 1.388 2.675 2.767 4.704 4.048c2.577 1.625 5.728 2.953 8.875 3.74c11.341 2.835 21.964 2.126 31.027-1.848c.056 1.612.099 3.152.135 4.482c.06 2.157.12 4.272.199 6.25c.537 13.374 1.447 23.773 4.143 31.049c.148.4.347 1.01.557 1.657c1.345 4.118 3.594 11.012 9.316 16.411c5.925 5.593 13.092 7.308 19.656 7.308c3.292 0 6.433-.432 9.188-1.022c9.82-2.105 20.973-5.311 29.041-16.799c7.628-10.86 11.336-27.217 12.007-52.99q.13-1.094.244-2.088l.16-1.362l1.797.158l.463.031c10.002.456 22.232-1.665 29.743-5.154c5.935-2.754 24.954-12.795 20.476-26.351"/><path fill="#336791" d="M237.906 160.722c-29.74 6.135-31.785-3.934-31.785-3.934c31.4-46.593 44.527-105.736 33.2-120.211c-30.904-39.485-84.399-20.811-85.292-20.327l-.287.052c-5.876-1.22-12.451-1.946-19.842-2.067c-13.456-.22-23.664 3.528-31.41 9.402c0 0-95.43-39.314-90.991 49.444c.944 18.882 27.064 142.873 58.218 105.422c11.387-13.695 22.39-25.274 22.39-25.274c5.464 3.63 12.006 5.482 18.864 4.817l.533-.452c-.166 1.7-.09 3.363.213 5.332c-8.026 8.967-5.667 10.541-21.711 13.844c-16.235 3.346-6.698 9.302-.471 10.86c7.549 1.887 25.013 4.561 36.813-11.958l-.47 1.885c3.144 2.519 5.352 16.383 4.982 28.952c-.37 12.568-.617 21.197 1.86 27.937c2.479 6.74 4.948 21.905 26.04 17.386c17.623-3.777 26.756-13.564 28.027-29.89c.901-11.606 2.942-9.89 3.07-20.267l1.637-4.912c1.887-15.733.3-20.809 11.157-18.448l2.64.232c7.99.363 18.45-1.286 24.589-4.139c13.218-6.134 21.058-16.377 8.024-13.686z"/><path fill="#fff" d="M108.076 81.525c-2.68-.373-5.107-.028-6.335.902c-.69.523-.904 1.129-.962 1.546c-.154 1.105.62 2.327 1.096 2.957c1.346 1.784 3.312 3.01 5.258 3.28q.423.059.842.058c3.245 0 6.196-2.527 6.456-4.392c.325-2.336-3.066-3.893-6.355-4.35m88.784.073c-.256-1.831-3.514-2.353-6.606-1.923c-3.088.43-6.082 1.824-5.832 3.659c.2 1.427 2.777 3.863 5.827 3.863q.387 0 .78-.054c2.036-.282 3.53-1.575 4.24-2.32c1.08-1.136 1.706-2.402 1.591-3.225"/><path fill="#fff" d="M247.802 160.025c-1.134-3.429-4.784-4.532-10.848-3.28c-18.005 3.716-24.453 1.142-26.57-.417c13.995-21.32 25.508-47.092 31.719-71.137c2.942-11.39 4.567-21.968 4.7-30.59c.147-9.463-1.465-16.417-4.789-20.665c-13.402-17.125-33.072-26.311-56.882-26.563c-16.369-.184-30.199 4.005-32.88 5.183c-5.646-1.404-11.801-2.266-18.502-2.376c-12.288-.199-22.91 2.743-31.704 8.74c-3.82-1.422-13.692-4.811-25.765-6.756c-20.872-3.36-37.458-.814-49.294 7.571c-14.123 10.006-20.643 27.892-19.38 53.16c.425 8.501 5.269 34.653 12.913 59.698c10.062 32.964 21 51.625 32.508 55.464c1.347.449 2.9.763 4.613.763c4.198 0 9.345-1.892 14.7-8.33a530 530 0 0 1 20.261-22.926c4.524 2.428 9.494 3.784 14.577 3.92q.016.2.035.398a118 118 0 0 0-2.57 3.175c-3.522 4.471-4.255 5.402-15.592 7.736c-3.225.666-11.79 2.431-11.916 8.435c-.136 6.56 10.125 9.315 11.294 9.607c4.074 1.02 7.999 1.523 11.742 1.523c9.103 0 17.114-2.992 23.516-8.781c-.197 23.386.778 46.43 3.586 53.451c2.3 5.748 7.918 19.795 25.664 19.794c2.604 0 5.47-.303 8.623-.979c18.521-3.97 26.564-12.156 29.675-30.203c1.665-9.645 4.522-32.676 5.866-45.03c2.836.885 6.487 1.29 10.434 1.289c8.232 0 17.731-1.749 23.688-4.514c6.692-3.108 18.768-10.734 16.578-17.36m-44.106-83.48c-.061 3.647-.563 6.958-1.095 10.414c-.573 3.717-1.165 7.56-1.314 12.225c-.147 4.54.42 9.26.968 13.825c1.108 9.22 2.245 18.712-2.156 28.078a37 37 0 0 1-1.95-4.009c-.547-1.326-1.735-3.456-3.38-6.404c-6.399-11.476-21.384-38.35-13.713-49.316c2.285-3.264 8.084-6.62 22.64-4.813m-17.644-61.787c21.334.471 38.21 8.452 50.158 23.72c9.164 11.711-.927 64.998-30.14 110.969a171 171 0 0 0-.886-1.117l-.37-.462c7.549-12.467 6.073-24.802 4.759-35.738c-.54-4.488-1.05-8.727-.92-12.709c.134-4.22.692-7.84 1.232-11.34c.663-4.313 1.338-8.776 1.152-14.037c.139-.552.195-1.204.122-1.978c-.475-5.045-6.235-20.144-17.975-33.81c-6.422-7.475-15.787-15.84-28.574-21.482c5.5-1.14 13.021-2.203 21.442-2.016M66.674 175.778c-5.9 7.094-9.974 5.734-11.314 5.288c-8.73-2.912-18.86-21.364-27.791-50.624c-7.728-25.318-12.244-50.777-12.602-57.916c-1.128-22.578 4.345-38.313 16.268-46.769c19.404-13.76 51.306-5.524 64.125-1.347c-.184.182-.376.352-.558.537c-21.036 21.244-20.537 57.54-20.485 59.759c-.002.856.07 2.068.168 3.735c.362 6.105 1.036 17.467-.764 30.334c-1.672 11.957 2.014 23.66 10.111 32.109a36 36 0 0 0 2.617 2.468c-3.604 3.86-11.437 12.396-19.775 22.426m22.479-29.993c-6.526-6.81-9.49-16.282-8.133-25.99c1.9-13.592 1.199-25.43.822-31.79c-.053-.89-.1-1.67-.127-2.285c3.073-2.725 17.314-10.355 27.47-8.028c4.634 1.061 7.458 4.217 8.632 9.645c6.076 28.103.804 39.816-3.432 49.229c-.873 1.939-1.698 3.772-2.402 5.668l-.546 1.466c-1.382 3.706-2.668 7.152-3.465 10.424c-6.938-.02-13.687-2.984-18.819-8.34m1.065 37.9c-2.026-.506-3.848-1.385-4.917-2.114c.893-.42 2.482-.992 5.238-1.56c13.337-2.745 15.397-4.683 19.895-10.394c1.031-1.31 2.2-2.794 3.819-4.602l.002-.002c2.411-2.7 3.514-2.242 5.514-1.412c1.621.67 3.2 2.702 3.84 4.938c.303 1.056.643 3.06-.47 4.62c-9.396 13.156-23.088 12.987-32.921 10.526m69.799 64.952c-16.316 3.496-22.093-4.829-25.9-14.346c-2.457-6.144-3.665-33.85-2.808-64.447c.011-.407-.047-.8-.159-1.17a15.4 15.4 0 0 0-.456-2.162c-1.274-4.452-4.379-8.176-8.104-9.72c-1.48-.613-4.196-1.738-7.46-.903c.696-2.868 1.903-6.107 3.212-9.614l.549-1.475c.618-1.663 1.394-3.386 2.214-5.21c4.433-9.848 10.504-23.337 3.915-53.81c-2.468-11.414-10.71-16.988-23.204-15.693c-7.49.775-14.343 3.797-17.761 5.53c-.735.372-1.407.732-2.035 1.082c.954-11.5 4.558-32.992 18.04-46.59c8.489-8.56 19.794-12.788 33.568-12.56c27.14.444 44.544 14.372 54.366 25.979c8.464 10.001 13.047 20.076 14.876 25.51c-13.755-1.399-23.11 1.316-27.852 8.096c-10.317 14.748 5.644 43.372 13.315 57.129c1.407 2.521 2.621 4.7 3.003 5.626c2.498 6.054 5.732 10.096 8.093 13.046c.724.904 1.426 1.781 1.96 2.547c-4.166 1.201-11.649 3.976-10.967 17.847c-.55 6.96-4.461 39.546-6.448 51.059c-2.623 15.21-8.22 20.875-23.957 24.25m68.104-77.936c-4.26 1.977-11.389 3.46-18.161 3.779c-7.48.35-11.288-.838-12.184-1.569c-.42-8.644 2.797-9.547 6.202-10.503c.535-.15 1.057-.297 1.561-.473q.469.383 1.032.756c6.012 3.968 16.735 4.396 31.874 1.271l.166-.033c-2.042 1.909-5.536 4.471-10.49 6.772"/></symbol><symbol id="l-database" viewBox="0 0 100 100"><g fill="none" stroke="#475569" stroke-width="6"><ellipse cx="50" cy="22" rx="32" ry="11"/><path d="M18 22v56c0 6 14 11 32 11s32-5 32-11V22"/><path d="M18 41c0 6 14 11 32 11s32-5 32-11M18 60c0 6 14 11 32 11s32-5 32-11"/></g></symbol><marker id="ar" viewBox="0 0 10 10" refX="9" refY="5" markerWidth="7" markerHeight="7" orient="auto-start-reverse"><path d="M0 0 L10 5 L0 10 z" fill="#9ca3af"/></marker></defs><rect width="2077.16" height="1192" rx="18" fill="#ffffff" stroke="#e5e7eb" stroke-width="1.5"/><use href="#l-kubernetes" x="28" y="26" width="30" height="30"/><text x="68" y="48" font-family="Inter, ui-sans-serif, system-ui, -apple-system, sans-serif" font-size="18" font-weight="700" fill="#111827" text-anchor="start" letter-spacing="0">unoverse: single box</text><g transform="translate(0,-40)"><rect x="24" y="337.0" width="256" height="280.0" rx="14" fill="none" stroke="#8b93a5" stroke-width="1.5" stroke-dasharray="4 4"/><text x="40" y="361.0" font-family="Inter, ui-sans-serif, system-ui, -apple-system, sans-serif" font-size="12" font-weight="700" fill="#8b93a5" text-anchor="start" letter-spacing="0.8">UNOVERSE (VENDOR)</text><rect x="42" y="375.0" width="220" height="60" rx="10" fill="#fff" stroke="#e5e7eb" stroke-width="1.5"/><text x="58" y="401.0" font-family="Inter, ui-sans-serif, system-ui, -apple-system, sans-serif" font-size="15" font-weight="600" fill="#111827" text-anchor="start" letter-spacing="0">Support engineers</text><text x="58" y="419.0" font-family="Inter, ui-sans-serif, system-ui, -apple-system, sans-serif" font-size="13" font-weight="400" fill="#6b7280" text-anchor="start" letter-spacing="0">no standing access</text><rect x="42" y="539.0" width="220" height="60" rx="10" fill="#fff" stroke="#e5e7eb" stroke-width="1.5"/><text x="58" y="565.0" font-family="Inter, ui-sans-serif, system-ui, -apple-system, sans-serif" font-size="15" font-weight="600" fill="#111827" text-anchor="start" letter-spacing="0">Release</text><text x="58" y="583.0" font-family="Inter, ui-sans-serif, system-ui, -apple-system, sans-serif" font-size="13" font-weight="400" fill="#6b7280" text-anchor="start" letter-spacing="0">signed chart and images</text><rect x="318" y="124" width="1733.1599999999999" height="648" rx="14" fill="none" stroke="#0f172a" stroke-width="1.5" stroke-dasharray="6 5"/><text x="334" y="148" font-family="Inter, ui-sans-serif, system-ui, -apple-system, sans-serif" font-size="12" font-weight="700" fill="#0f172a" text-anchor="start" letter-spacing="0.8">ENTERPRISE ENVIRONMENT · CUSTOMER-MANAGED</text><rect x="652" y="166" width="1045.16" height="496" rx="14" fill="none" stroke="#326ce5" stroke-width="1.5" stroke-dasharray="6 5"/><text x="668" y="190" font-family="Inter, ui-sans-serif, system-ui, -apple-system, sans-serif" font-size="12" font-weight="700" fill="#326ce5" text-anchor="start" letter-spacing="0.8">ONE MACHINE · 8 VCPU · 32 GB RAM · 200 GB SSD · ENCRYPTED AT REST · ENTERPRISE KEYS</text><rect x="340" y="293.0" width="200" height="60" rx="10" fill="#fff" stroke="#e5e7eb" stroke-width="1.5"/><text x="356" y="319.0" font-family="Inter, ui-sans-serif, system-ui, -apple-system, sans-serif" font-size="15" font-weight="600" fill="#111827" text-anchor="start" letter-spacing="0">Users</text><text x="356" y="337.0" font-family="Inter, ui-sans-serif, system-ui, -apple-system, sans-serif" font-size="13" font-weight="400" fill="#6b7280" text-anchor="start" letter-spacing="0">browser · AI assistants</text><rect x="674" y="208" width="345.16" height="432" rx="14" fill="#fafafc" stroke="#8b93a5" stroke-width="1.5" stroke-dasharray="4 4"/><text x="690" y="232" font-family="Inter, ui-sans-serif, system-ui, -apple-system, sans-serif" font-size="12" font-weight="700" fill="#8b93a5" text-anchor="start" letter-spacing="0.8">PLATFORM · CUSTOMER OR UNOVERSE</text><rect x="692" y="293.0" width="309" height="60" rx="10" fill="#fff" stroke="#e5e7eb" stroke-width="1.5"/><text x="708" y="319.0" font-family="Inter, ui-sans-serif, system-ui, -apple-system, sans-serif" font-size="15" font-weight="600" fill="#111827" text-anchor="start" letter-spacing="0">Ingress</text><text x="708" y="337.0" font-family="Inter, ui-sans-serif, system-ui, -apple-system, sans-serif" font-size="13" font-weight="400" fill="#6b7280" text-anchor="start" letter-spacing="0">HTTPS · WebSockets, 1-hour timeout</text><rect x="692" y="375.0" width="309" height="60" rx="10" fill="#fff" stroke="#e5e7eb" stroke-width="1.5"/><text x="708" y="401.0" font-family="Inter, ui-sans-serif, system-ui, -apple-system, sans-serif" font-size="15" font-weight="600" fill="#111827" text-anchor="start" letter-spacing="0">Cluster access</text><text x="708" y="419.0" font-family="Inter, ui-sans-serif, system-ui, -apple-system, sans-serif" font-size="13" font-weight="400" fill="#6b7280" text-anchor="start" letter-spacing="0">role-based · every action logged</text><rect x="692" y="457.0" width="309" height="60" rx="10" fill="#fff" stroke="#e5e7eb" stroke-width="1.5"/><text x="708" y="483.0" font-family="Inter, ui-sans-serif, system-ui, -apple-system, sans-serif" font-size="15" font-weight="600" fill="#111827" text-anchor="start" letter-spacing="0">Policy engine</text><text x="708" y="501.0" font-family="Inter, ui-sans-serif, system-ui, -apple-system, sans-serif" font-size="13" font-weight="400" fill="#6b7280" text-anchor="start" letter-spacing="0">only signed images run</text><rect x="692" y="539.0" width="309" height="60" rx="10" fill="#fff" stroke="#e5e7eb" stroke-width="1.5"/><text x="708" y="565.0" font-family="Inter, ui-sans-serif, system-ui, -apple-system, sans-serif" font-size="15" font-weight="600" fill="#111827" text-anchor="start" letter-spacing="0">Registry and GitOps</text><text x="708" y="583.0" font-family="Inter, ui-sans-serif, system-ui, -apple-system, sans-serif" font-size="13" font-weight="400" fill="#6b7280" text-anchor="start" letter-spacing="0">mirror of our release · approved upgrades</text><rect x="1075.16" y="208" width="600" height="432" rx="14" fill="#fafafc" stroke="#6D5DF6" stroke-width="1.5" stroke-dasharray="4 4"/><text x="1091.16" y="232" font-family="Inter, ui-sans-serif, system-ui, -apple-system, sans-serif" font-size="12" font-weight="700" fill="#6D5DF6" text-anchor="start" letter-spacing="0.8">UNOVERSE · UNOVERSE-MANAGED APPLICATION</text><rect x="1093.16" y="244" width="564" height="224.0" rx="12" fill="#ffffff" stroke="#cbd0da" stroke-width="1.8"/><rect x="1093.16" y="244" width="564" height="44" rx="12" fill="#f4f5f8"/><rect x="1093.16" y="276" width="564" height="12" fill="#f4f5f8"/><line x1="1093.16" y1="288" x2="1657.16" y2="288" stroke="#e5e7eb"/><use href="#l-kubernetes" x="1107.16" y="253" width="24" height="24"/><text x="1143.16" y="266" font-family="Inter, ui-sans-serif, system-ui, -apple-system, sans-serif" font-size="15" font-weight="700" fill="#111827" text-anchor="start" letter-spacing="0">Application</text><text x="1143.16" y="282" font-family="Inter, ui-sans-serif, system-ui, -apple-system, sans-serif" font-size="12.5" font-weight="400" fill="#6b7280" text-anchor="start" letter-spacing="0">signed images · non-root · network closed by default</text><rect x="1107.16" y="300.0" width="536" height="46" rx="9" fill="#fff" stroke="#e5e7eb" stroke-width="1.4"/><rect x="1107.16" y="300.0" width="4" height="46" rx="2" fill="#d97706"/><text x="1121.16" y="321.0" font-family="Inter, ui-sans-serif, system-ui, -apple-system, sans-serif" font-size="14" font-weight="600" fill="#111827" text-anchor="start" letter-spacing="0">unoverse</text><text x="1121.16" y="338.0" font-family="Inter, ui-sans-serif, system-ui, -apple-system, sans-serif" font-size="12.5" font-weight="400" fill="#d97706" text-anchor="start" letter-spacing="0">API · MCP · workflow engine · runs the nodes</text><rect x="1107.16" y="354.0" width="260.0" height="46" rx="9" fill="#fff" stroke="#e5e7eb" stroke-width="1.4"/><rect x="1107.16" y="354.0" width="4" height="46" rx="2" fill="#d97706"/><text x="1121.16" y="375.0" font-family="Inter, ui-sans-serif, system-ui, -apple-system, sans-serif" font-size="14" font-weight="600" fill="#111827" text-anchor="start" letter-spacing="0">Canvas</text><text x="1121.16" y="392.0" font-family="Inter, ui-sans-serif, system-ui, -apple-system, sans-serif" font-size="12.5" font-weight="400" fill="#d97706" text-anchor="start" letter-spacing="0">the app users work in</text><rect x="1383.16" y="354.0" width="260.0" height="46" rx="9" fill="#fff" stroke="#e5e7eb" stroke-width="1.4"/><rect x="1383.16" y="354.0" width="4" height="46" rx="2" fill="#0f766e"/><text x="1397.16" y="375.0" font-family="Inter, ui-sans-serif, system-ui, -apple-system, sans-serif" font-size="14" font-weight="600" fill="#111827" text-anchor="start" letter-spacing="0">Memory</text><text x="1397.16" y="392.0" font-family="Inter, ui-sans-serif, system-ui, -apple-system, sans-serif" font-size="12.5" font-weight="400" fill="#0f766e" text-anchor="start" letter-spacing="0">profiles and tasks</text><rect x="1107.16" y="408.0" width="260.0" height="46" rx="9" fill="#fff" stroke="#e5e7eb" stroke-width="1.4"/><rect x="1107.16" y="408.0" width="4" height="46" rx="2" fill="#0f766e"/><text x="1121.16" y="429.0" font-family="Inter, ui-sans-serif, system-ui, -apple-system, sans-serif" font-size="14" font-weight="600" fill="#111827" text-anchor="start" letter-spacing="0">Spatial ML</text><text x="1121.16" y="446.0" font-family="Inter, ui-sans-serif, system-ui, -apple-system, sans-serif" font-size="12.5" font-weight="400" fill="#0f766e" text-anchor="start" letter-spacing="0">the semantic map · one copy</text><rect x="1383.16" y="408.0" width="260.0" height="46" rx="9" fill="#fff" stroke="#e5e7eb" stroke-width="1.4"/><rect x="1383.16" y="408.0" width="4" height="46" rx="2" fill="#0f766e"/><text x="1397.16" y="429.0" font-family="Inter, ui-sans-serif, system-ui, -apple-system, sans-serif" font-size="14" font-weight="600" fill="#111827" text-anchor="start" letter-spacing="0">Documents</text><text x="1397.16" y="446.0" font-family="Inter, ui-sans-serif, system-ui, -apple-system, sans-serif" font-size="12.5" font-weight="400" fill="#0f766e" text-anchor="start" letter-spacing="0">reads and parses files · early</text><rect x="1093.16" y="490.0" width="564" height="132.0" rx="14" fill="#ffffff" stroke="#8b93a5" stroke-width="1.5" stroke-dasharray="4 4"/><text x="1109.16" y="514.0" font-family="Inter, ui-sans-serif, system-ui, -apple-system, sans-serif" font-size="12" font-weight="700" fill="#8b93a5" text-anchor="start" letter-spacing="0.8">DATA · THIS CELL ONLY</text><rect x="1111.16" y="526.0" width="253" height="78" rx="10" fill="#fff" stroke="#e5e7eb" stroke-width="1.5"/><use href="#l-database" x="1125.16" y="552.0" width="26" height="26"/><text x="1161.16" y="555.0" font-family="Inter, ui-sans-serif, system-ui, -apple-system, sans-serif" font-size="15" font-weight="600" fill="#111827" text-anchor="start" letter-spacing="0">Valkey (Redis)</text><text x="1161.16" y="573.0" font-family="Inter, ui-sans-serif, system-ui, -apple-system, sans-serif" font-size="13" font-weight="400" fill="#6b7280" text-anchor="start" letter-spacing="0">cache and live events</text><text x="1161.16" y="590.0" font-family="Inter, ui-sans-serif, system-ui, -apple-system, sans-serif" font-size="13" font-weight="400" fill="#6b7280" text-anchor="start" letter-spacing="0">one per cell</text><rect x="1386.16" y="526.0" width="278" height="78" rx="10" fill="#fff" stroke="#e5e7eb" stroke-width="1.5"/><use href="#l-postgres" x="1400.16" y="552.0" width="26" height="26"/><text x="1436.16" y="555.0" font-family="Inter, ui-sans-serif, system-ui, -apple-system, sans-serif" font-size="15" font-weight="600" fill="#111827" text-anchor="start" letter-spacing="0">Postgres</text><text x="1436.16" y="573.0" font-family="Inter, ui-sans-serif, system-ui, -apple-system, sans-serif" font-size="13" font-weight="400" fill="#6b7280" text-anchor="start" letter-spacing="0">all cell data · 1 copy</text><text x="1436.16" y="590.0" font-family="Inter, ui-sans-serif, system-ui, -apple-system, sans-serif" font-size="13" font-weight="400" fill="#6b7280" text-anchor="start" letter-spacing="0">backed up every 5 min + nightly</text><rect x="1789.16" y="293.0" width="240" height="60" rx="10" fill="#fff" stroke="#e5e7eb" stroke-width="1.5"/><text x="1805.16" y="319.0" font-family="Inter, ui-sans-serif, system-ui, -apple-system, sans-serif" font-size="15" font-weight="600" fill="#111827" text-anchor="start" letter-spacing="0">Identity provider</text><text x="1805.16" y="337.0" font-family="Inter, ui-sans-serif, system-ui, -apple-system, sans-serif" font-size="13" font-weight="400" fill="#6b7280" text-anchor="start" letter-spacing="0">sign-in · roles</text><rect x="1789.16" y="373.0" width="240" height="60" rx="10" fill="#fff" stroke="#e5e7eb" stroke-width="1.5"/><text x="1805.16" y="399.0" font-family="Inter, ui-sans-serif, system-ui, -apple-system, sans-serif" font-size="15" font-weight="600" fill="#111827" text-anchor="start" letter-spacing="0">AI gateway</text><text x="1805.16" y="417.0" font-family="Inter, ui-sans-serif, system-ui, -apple-system, sans-serif" font-size="13" font-weight="400" fill="#6b7280" text-anchor="start" letter-spacing="0">every model call</text><rect x="1789.16" y="453.0" width="240" height="60" rx="10" fill="#fff" stroke="#e5e7eb" stroke-width="1.5"/><text x="1805.16" y="479.0" font-family="Inter, ui-sans-serif, system-ui, -apple-system, sans-serif" font-size="15" font-weight="600" fill="#111827" text-anchor="start" letter-spacing="0">Core systems</text><text x="1805.16" y="497.0" font-family="Inter, ui-sans-serif, system-ui, -apple-system, sans-serif" font-size="13" font-weight="400" fill="#6b7280" text-anchor="start" letter-spacing="0">integrations through nodes</text><rect x="1789.16" y="533.0" width="240" height="60" rx="10" fill="#fff" stroke="#e5e7eb" stroke-width="1.5"/><text x="1805.16" y="559.0" font-family="Inter, ui-sans-serif, system-ui, -apple-system, sans-serif" font-size="15" font-weight="600" fill="#111827" text-anchor="start" letter-spacing="0">Security logs</text><text x="1805.16" y="577.0" font-family="Inter, ui-sans-serif, system-ui, -apple-system, sans-serif" font-size="13" font-weight="400" fill="#6b7280" text-anchor="start" letter-spacing="0">audit trail · enterprise SIEM</text><rect x="1111.16" y="690" width="253" height="60" rx="10" fill="#fff" stroke="#e5e7eb" stroke-width="1.5"/><text x="1127.16" y="716.0" font-family="Inter, ui-sans-serif, system-ui, -apple-system, sans-serif" font-size="15" font-weight="600" fill="#111827" text-anchor="start" letter-spacing="0">Keys and secrets</text><text x="1127.16" y="734.0" font-family="Inter, ui-sans-serif, system-ui, -apple-system, sans-serif" font-size="13" font-weight="400" fill="#6b7280" text-anchor="start" letter-spacing="0">held in the enterprise vault</text><rect x="1386.16" y="690" width="253" height="60" rx="10" fill="#fff" stroke="#e5e7eb" stroke-width="1.5"/><text x="1402.16" y="716.0" font-family="Inter, ui-sans-serif, system-ui, -apple-system, sans-serif" font-size="15" font-weight="600" fill="#111827" text-anchor="start" letter-spacing="0">Backup storage</text><text x="1402.16" y="734.0" font-family="Inter, ui-sans-serif, system-ui, -apple-system, sans-serif" font-size="13" font-weight="400" fill="#6b7280" text-anchor="start" letter-spacing="0">continuous · encrypted</text><rect x="340" y="690" width="743.1600000000001" height="60" rx="10" fill="#f5f3ff" stroke="#ddd6fe" stroke-width="1.5"/><text x="358" y="715" font-family="Inter, ui-sans-serif, system-ui, -apple-system, sans-serif" font-size="13" font-weight="600" fill="#4c1d95" text-anchor="start" letter-spacing="0">No inbound connection from Unoverse. No standing vendor access.</text><text x="358" y="733" font-family="Inter, ui-sans-serif, system-ui, -apple-system, sans-serif" font-size="12.5" font-weight="400" fill="#5b21b6" text-anchor="start" letter-spacing="0">Model calls go through the enterprise AI gateway. Other outbound calls only to an approved list.</text><path d="M540 323 L692 323" fill="none" stroke="#9ca3af" stroke-width="1.6" marker-end="url(#ar)"/><rect x="577.5" y="313" width="53.0" height="20" rx="10" fill="#fff" stroke="#e5e7eb"/><text x="604" y="327" font-family="Inter, ui-sans-serif, system-ui, -apple-system, sans-serif" font-size="12" font-weight="500" fill="#6b7280" text-anchor="middle" letter-spacing="0">HTTPS</text><circle cx="556" cy="323" r="10" fill="#6D5DF6"/><text x="556" y="327" font-family="Inter, ui-sans-serif, system-ui, -apple-system, sans-serif" font-size="12" font-weight="700" fill="#ffffff" text-anchor="middle" letter-spacing="0">1</text><path d="M1001.1600000000001 323 L1107.16 323" fill="none" stroke="#9ca3af" stroke-width="1.6" marker-end="url(#ar)"/><path d="M262 405 L692 405" fill="none" stroke="#9ca3af" stroke-width="1.6" stroke-dasharray="5 4" marker-end="url(#ar)"/><rect x="384.0" y="395" width="186.0" height="20" rx="10" fill="#fff" stroke="#e5e7eb"/><text x="477.0" y="409" font-family="Inter, ui-sans-serif, system-ui, -apple-system, sans-serif" font-size="12" font-weight="500" fill="#6b7280" text-anchor="middle" letter-spacing="0">enterprise-approved only</text><circle cx="284" cy="405" r="10" fill="#6D5DF6"/><text x="284" y="409" font-family="Inter, ui-sans-serif, system-ui, -apple-system, sans-serif" font-size="12" font-weight="700" fill="#ffffff" text-anchor="middle" letter-spacing="0">6</text><path d="M262 569 L692 569" fill="none" stroke="#9ca3af" stroke-width="1.6" stroke-dasharray="5 4" marker-end="url(#ar)"/><rect x="415.5" y="559" width="123.0" height="20" rx="10" fill="#fff" stroke="#e5e7eb"/><text x="477.0" y="573" font-family="Inter, ui-sans-serif, system-ui, -apple-system, sans-serif" font-size="12" font-weight="500" fill="#6b7280" text-anchor="middle" letter-spacing="0">pulled · signed</text><circle cx="284" cy="569" r="10" fill="#6D5DF6"/><text x="284" y="573" font-family="Inter, ui-sans-serif, system-ui, -apple-system, sans-serif" font-size="12" font-weight="700" fill="#ffffff" text-anchor="middle" letter-spacing="0">3</text><path d="M1001.1600000000001 569 L1075.16 569" fill="none" stroke="#9ca3af" stroke-width="1.6" marker-end="url(#ar)"/><path d="M1731.16 323 L1731.16 563" fill="none" stroke="#9ca3af" stroke-width="1.6"/><path d="M1643.16 323 L1789.16 323" fill="none" stroke="#9ca3af" stroke-width="1.6" marker-end="url(#ar)"/><path d="M1731.16 403 L1789.16 403" fill="none" stroke="#9ca3af" stroke-width="1.6" marker-end="url(#ar)"/><path d="M1731.16 483 L1789.16 483" fill="none" stroke="#9ca3af" stroke-width="1.6" marker-end="url(#ar)"/><path d="M1731.16 563 L1789.16 563" fill="none" stroke="#9ca3af" stroke-width="1.6" marker-end="url(#ar)"/><circle cx="1762.16" cy="323" r="10" fill="#6D5DF6"/><text x="1762.16" y="327" font-family="Inter, ui-sans-serif, system-ui, -apple-system, sans-serif" font-size="12" font-weight="700" fill="#ffffff" text-anchor="middle" letter-spacing="0">2</text><circle cx="1762.16" cy="403" r="10" fill="#6D5DF6"/><text x="1762.16" y="407" font-family="Inter, ui-sans-serif, system-ui, -apple-system, sans-serif" font-size="12" font-weight="700" fill="#ffffff" text-anchor="middle" letter-spacing="0">4</text><circle cx="1762.16" cy="483" r="10" fill="#6D5DF6"/><text x="1762.16" y="487" font-family="Inter, ui-sans-serif, system-ui, -apple-system, sans-serif" font-size="12" font-weight="700" fill="#ffffff" text-anchor="middle" letter-spacing="0">5</text><circle cx="1762.16" cy="563" r="10" fill="#6D5DF6"/><text x="1762.16" y="567" font-family="Inter, ui-sans-serif, system-ui, -apple-system, sans-serif" font-size="12" font-weight="700" fill="#ffffff" text-anchor="middle" letter-spacing="0">7</text><path d="M1237.66 690 L1237.66 604.0" fill="none" stroke="#9ca3af" stroke-width="1.6" marker-end="url(#ar)"/><path d="M1512.66 604.0 L1512.66 690" fill="none" stroke="#9ca3af" stroke-width="1.6" marker-end="url(#ar)"/><circle cx="1530.66" cy="678.0" r="10" fill="#6D5DF6"/><text x="1530.66" y="682.0" font-family="Inter, ui-sans-serif, system-ui, -apple-system, sans-serif" font-size="12" font-weight="700" fill="#ffffff" text-anchor="middle" letter-spacing="0">8</text><rect x="318" y="792" width="1733.1599999999999" height="144" rx="10" fill="#ffffff" stroke="#0f172a" stroke-width="1.5"/><text x="336" y="820" font-family="Inter, ui-sans-serif, system-ui, -apple-system, sans-serif" font-size="11.5" font-weight="700" fill="#0f172a" text-anchor="start" letter-spacing="1.2">CUSTOMER-PROVIDED INFRASTRUCTURE</text><text x="1848.36" y="820" font-family="Inter, ui-sans-serif, system-ui, -apple-system, sans-serif" font-size="11.5" font-weight="500" fill="#111827" text-anchor="start" letter-spacing="0">Unoverse-managed application</text><rect x="1818.36" y="810" width="22" height="13" rx="3" fill="none" stroke="#6D5DF6" stroke-width="1.5" stroke-dasharray="4 4"/><text x="1459.76" y="820" font-family="Inter, ui-sans-serif, system-ui, -apple-system, sans-serif" font-size="11.5" font-weight="500" fill="#111827" text-anchor="start" letter-spacing="0">Customer-managed, or managed by Unoverse on request</text><rect x="1429.76" y="810" width="22" height="13" rx="3" fill="none" stroke="#8b93a5" stroke-width="1.5" stroke-dasharray="4 4"/><text x="1302.16" y="820" font-family="Inter, ui-sans-serif, system-ui, -apple-system, sans-serif" font-size="11.5" font-weight="500" fill="#111827" text-anchor="start" letter-spacing="0">Customer-managed</text><rect x="1272.16" y="810" width="22" height="13" rx="3" fill="none" stroke="#0f172a" stroke-width="1.5" stroke-dasharray="6 5"/><text x="336.0" y="846" font-family="Inter, ui-sans-serif, system-ui, -apple-system, sans-serif" font-size="12.5" fill="#111827"><tspan font-weight="700">1 Linux machine</tspan><tspan fill="#6b7280">  8 vCPU · 32 GB RAM · 200 GB SSD (minimum 4 vCPU · 16 GB)</tspan></text><text x="336.0" y="868" font-family="Inter, ui-sans-serif, system-ui, -apple-system, sans-serif" font-size="12.5" fill="#111827"><tspan font-weight="700">Backup storage</tspan><tspan fill="#6b7280">  object storage: S3, Azure Blob, Google Cloud or on-premises · about 50 GB to start</tspan></text><text x="336.0" y="890" font-family="Inter, ui-sans-serif, system-ui, -apple-system, sans-serif" font-size="12.5" fill="#111827"><tspan font-weight="700">One address</tspan><tspan fill="#6b7280">  a DNS name with an HTTPS certificate</tspan></text><text x="336.0" y="912" font-family="Inter, ui-sans-serif, system-ui, -apple-system, sans-serif" font-size="12.5" fill="#111827"><tspan font-weight="700">Sign-in</tspan><tspan fill="#6b7280">  Entra or any OIDC · roles as set out in the access-control guide</tspan></text><text x="1184.58" y="846" font-family="Inter, ui-sans-serif, system-ui, -apple-system, sans-serif" font-size="12.5" fill="#111827"><tspan font-weight="700">AI</tspan><tspan fill="#6b7280">  your AI gateway, or model API keys</tspan></text><text x="1184.58" y="868" font-family="Inter, ui-sans-serif, system-ui, -apple-system, sans-serif" font-size="12.5" fill="#111827"><tspan font-weight="700">Outbound</tspan><tspan fill="#6b7280">  an approved list: AI, our release or your mirror</tspan></text><text x="1184.58" y="890" font-family="Inter, ui-sans-serif, system-ui, -apple-system, sans-serif" font-size="12.5" fill="#111827"><tspan font-weight="700">Platform services</tspan><tspan fill="#6b7280">  customer-managed, or managed by Unoverse on request</tspan></text><rect x="318" y="952" width="1733.1599999999999" height="254" rx="10" fill="#ffffff" stroke="#0f172a" stroke-width="1.5"/><text x="336" y="980" font-family="Inter, ui-sans-serif, system-ui, -apple-system, sans-serif" font-size="11.5" font-weight="700" fill="#0f172a" text-anchor="start" letter-spacing="1.2">ESTIMATED CAPACITY · CONFIRMED DURING YOUR PILOT</text><text x="336" y="1006" font-family="Inter, ui-sans-serif, system-ui, -apple-system, sans-serif" font-size="12.5" fill="#111827"><tspan font-weight="700">Turns</tspan><tspan fill="#6b7280">  5 to 10 a second · about 20,000 to 35,000 an hour</tspan></text><text x="336" y="1028" font-family="Inter, ui-sans-serif, system-ui, -apple-system, sans-serif" font-size="12.5" fill="#111827"><tspan font-weight="700">In progress</tspan><tspan fill="#6b7280">  about 50 to 100 turns at once</tspan></text><text x="336" y="1050" font-family="Inter, ui-sans-serif, system-ui, -apple-system, sans-serif" font-size="12.5" fill="#111827"><tspan font-weight="700">People</tspan><tspan fill="#6b7280">  about 300 to 600 chatting actively · thousands signed in</tspan></text><text x="336" y="1072" font-family="Inter, ui-sans-serif, system-ui, -apple-system, sans-serif" font-size="12.5" fill="#111827"><tspan font-weight="700">Storage</tspan><tspan fill="#6b7280">  ~70 KB per turn · keep step records 30 days</tspan></text><text x="336" y="1094" font-family="Inter, ui-sans-serif, system-ui, -apple-system, sans-serif" font-size="12.5" fill="#111827"><tspan font-weight="700">AI usage</tspan><tspan fill="#6b7280">  set by each experience's design · the same wherever hosted</tspan></text><text x="336" y="1116" font-family="Inter, ui-sans-serif, system-ui, -apple-system, sans-serif" font-size="12.5" fill="#111827"><tspan font-weight="700">Cloud cost</tspan><tspan fill="#6b7280">  AWS or Azure, about $290 a month · about $190 with a 1-year commitment</tspan></text><text x="1184.58" y="980" font-family="Inter, ui-sans-serif, system-ui, -apple-system, sans-serif" font-size="11.5" font-weight="700" fill="#0f172a" text-anchor="start" letter-spacing="1.2">RESOURCES PER SERVICE</text><text x="1184.58" y="1006" font-family="Inter, ui-sans-serif, system-ui, -apple-system, sans-serif" font-size="11" font-weight="700" fill="#6b7280" text-anchor="start" letter-spacing="0.6">SERVICE</text><text x="1344.58" y="1006" font-family="Inter, ui-sans-serif, system-ui, -apple-system, sans-serif" font-size="11" font-weight="700" fill="#6b7280" text-anchor="start" letter-spacing="0.6">MEMORY</text><text x="1504.58" y="1006" font-family="Inter, ui-sans-serif, system-ui, -apple-system, sans-serif" font-size="11" font-weight="700" fill="#6b7280" text-anchor="start" letter-spacing="0.6">DISK</text><text x="1184.58" y="1028" font-family="Inter, ui-sans-serif, system-ui, -apple-system, sans-serif" font-size="12.5" font-weight="700" fill="#111827" text-anchor="start" letter-spacing="0">unoverse</text><text x="1344.58" y="1028" font-family="Inter, ui-sans-serif, system-ui, -apple-system, sans-serif" font-size="12.5" font-weight="400" fill="#6b7280" text-anchor="start" letter-spacing="0">1 to 4 GB</text><text x="1504.58" y="1028" font-family="Inter, ui-sans-serif, system-ui, -apple-system, sans-serif" font-size="12.5" font-weight="400" fill="#6b7280" text-anchor="start" letter-spacing="0">none</text><text x="1184.58" y="1050" font-family="Inter, ui-sans-serif, system-ui, -apple-system, sans-serif" font-size="12.5" font-weight="700" fill="#111827" text-anchor="start" letter-spacing="0">Memory</text><text x="1344.58" y="1050" font-family="Inter, ui-sans-serif, system-ui, -apple-system, sans-serif" font-size="12.5" font-weight="400" fill="#6b7280" text-anchor="start" letter-spacing="0">0.25 to 1 GB</text><text x="1504.58" y="1050" font-family="Inter, ui-sans-serif, system-ui, -apple-system, sans-serif" font-size="12.5" font-weight="400" fill="#6b7280" text-anchor="start" letter-spacing="0">none</text><text x="1184.58" y="1072" font-family="Inter, ui-sans-serif, system-ui, -apple-system, sans-serif" font-size="12.5" font-weight="700" fill="#111827" text-anchor="start" letter-spacing="0">Canvas</text><text x="1344.58" y="1072" font-family="Inter, ui-sans-serif, system-ui, -apple-system, sans-serif" font-size="12.5" font-weight="400" fill="#6b7280" text-anchor="start" letter-spacing="0">0.03 to 0.25 GB</text><text x="1504.58" y="1072" font-family="Inter, ui-sans-serif, system-ui, -apple-system, sans-serif" font-size="12.5" font-weight="400" fill="#6b7280" text-anchor="start" letter-spacing="0">none</text><text x="1184.58" y="1094" font-family="Inter, ui-sans-serif, system-ui, -apple-system, sans-serif" font-size="12.5" font-weight="700" fill="#111827" text-anchor="start" letter-spacing="0">Spatial ML</text><text x="1344.58" y="1094" font-family="Inter, ui-sans-serif, system-ui, -apple-system, sans-serif" font-size="12.5" font-weight="400" fill="#6b7280" text-anchor="start" letter-spacing="0">0.5 to 4 GB</text><text x="1504.58" y="1094" font-family="Inter, ui-sans-serif, system-ui, -apple-system, sans-serif" font-size="12.5" font-weight="400" fill="#6b7280" text-anchor="start" letter-spacing="0">5 GB</text><text x="1184.58" y="1116" font-family="Inter, ui-sans-serif, system-ui, -apple-system, sans-serif" font-size="12.5" font-weight="700" fill="#111827" text-anchor="start" letter-spacing="0">Documents (early)</text><text x="1344.58" y="1116" font-family="Inter, ui-sans-serif, system-ui, -apple-system, sans-serif" font-size="12.5" font-weight="400" fill="#6b7280" text-anchor="start" letter-spacing="0">1 to 6 GB</text><text x="1504.58" y="1116" font-family="Inter, ui-sans-serif, system-ui, -apple-system, sans-serif" font-size="12.5" font-weight="400" fill="#6b7280" text-anchor="start" letter-spacing="0">10 GB</text><text x="1184.58" y="1138" font-family="Inter, ui-sans-serif, system-ui, -apple-system, sans-serif" font-size="12.5" font-weight="700" fill="#111827" text-anchor="start" letter-spacing="0">Valkey</text><text x="1344.58" y="1138" font-family="Inter, ui-sans-serif, system-ui, -apple-system, sans-serif" font-size="12.5" font-weight="400" fill="#6b7280" text-anchor="start" letter-spacing="0">0.06 to 0.5 GB</text><text x="1504.58" y="1138" font-family="Inter, ui-sans-serif, system-ui, -apple-system, sans-serif" font-size="12.5" font-weight="400" fill="#6b7280" text-anchor="start" letter-spacing="0">2 GB</text><text x="1184.58" y="1160" font-family="Inter, ui-sans-serif, system-ui, -apple-system, sans-serif" font-size="12.5" font-weight="700" fill="#111827" text-anchor="start" letter-spacing="0">Postgres</text><text x="1344.58" y="1160" font-family="Inter, ui-sans-serif, system-ui, -apple-system, sans-serif" font-size="12.5" font-weight="400" fill="#6b7280" text-anchor="start" letter-spacing="0">0.5 to 2 GB</text><text x="1504.58" y="1160" font-family="Inter, ui-sans-serif, system-ui, -apple-system, sans-serif" font-size="12.5" font-weight="400" fill="#6b7280" text-anchor="start" letter-spacing="0">10 GB and up</text><text x="1184.58" y="1182" font-family="Inter, ui-sans-serif, system-ui, -apple-system, sans-serif" font-size="12.5" font-weight="700" fill="#111827" text-anchor="start" letter-spacing="0">Total</text><text x="1344.58" y="1182" font-family="Inter, ui-sans-serif, system-ui, -apple-system, sans-serif" font-size="12.5" font-weight="700" fill="#111827" text-anchor="start" letter-spacing="0">3.3 to 17.8 of 32 GB</text><text x="1504.58" y="1182" font-family="Inter, ui-sans-serif, system-ui, -apple-system, sans-serif" font-size="12.5" font-weight="700" fill="#111827" text-anchor="start" letter-spacing="0">27 GB and up</text></g></svg>